<svg width="40" height="40" viewBox="0 0 40 40" fill="none" xmlns="http://www.w3.org/2000/svg">
<circle opacity="0.2" cx="20" cy="20" r="20" fill="#C4C4C4"/>
<path d="M9.93209 20.3811C9.73683 20.5764 9.73683 20.893 9.93209 21.0882C10.1274 21.2835 10.4439 21.2835 10.6392 21.0882L9.93209 20.3811ZM20.7346 10.2857L21.0882 9.93215L20.7346 9.5786L20.3811 9.93215L20.7346 10.2857ZM30.8301 21.0882C31.0253 21.2835 31.3419 21.2835 31.5372 21.0882C31.7324 20.893 31.7324 20.5764 31.5372 20.3811L30.8301 21.0882ZM10.6392 21.0882L21.0882 10.6393L20.3811 9.93215L9.93209 20.3811L10.6392 21.0882ZM20.3811 10.6393L30.8301 21.0882L31.5372 20.3811L21.0882 9.93215L20.3811 10.6393Z" fill="black"/>
<path d="M12.8979 18.1226V28.5715H28.5714V18.1226" stroke="black"/>
<circle cx="21.7142" cy="21.7143" r="2.92857" fill="#FF7000" stroke="black"/>
<path d="M23.5886 24.0001L26.1486 26.5601" stroke="black" stroke-linecap="round"/>
</svg>
