<svg xmlns="http://www.w3.org/2000/svg" xmlns:xlink="http://www.w3.org/1999/xlink" width="68" height="68" viewBox="0 0 68 68">
    <defs>
        <circle id="a" cx="34" cy="34" r="34"/>
    </defs>
    <g fill="none" fill-rule="evenodd">
        <mask id="b" fill="#fff">
            <use xlink:href="#a"/>
        </mask>
        <use fill="#00AE99" xlink:href="#a"/>
        <g fill-rule="nonzero" mask="url(#b)">
            <path fill="#2A170C" d="M21.571 27.828v15.483c0 4.177 3.507 7.564 7.834 7.564h13.12c4.325 0 7.832-3.387 7.832-7.564V27.828H21.571z"/>
            <path fill="#F4C49D" d="M21.384 31.516c-2.46 0-4.455 2.063-4.455 4.609s1.994 4.61 4.455 4.61h2.045v-9.22h-2.045zM49.616 31.516c2.46 0 4.455 2.063 4.455 4.609s-1.994 4.61-4.455 4.61h-2.045v-9.22h2.045zM31.786 46.266h7.429v7.375h-7.429z"/>
            <path fill="#333" d="M31.786 52.241a14.676 14.676 0 0 0 7.428 0v-5.975h-7.428v5.975z" opacity=".15"/>
            <path fill="#FCCDA2" d="M50.357 28.68v7.267c0 7.735-6.444 14.006-14.393 14.006-7.949 0-14.393-6.27-14.393-14.006V28.68l14.393-10.07 14.393 10.07z"/>
            <path fill="#28160C" d="M35.964 14.922c-7.949 0-14.393 6.297-14.393 14.066v2.528c11.733-2.047 14.393-9.51 14.393-9.51s2.66 7.463 14.393 9.51v-2.528c0-7.769-6.444-14.066-14.393-14.066z"/>
            <path fill="#3B8BF7" d="M43.238 53.64H27.762c-5.983 0-10.833 4.814-10.833 10.752v7.686H54.07v-7.686c0-5.938-4.85-10.751-10.833-10.751z"/>
            <path fill="#FFF9F2" d="M35.965 53.64h7.892v1.764c0 2.081-1.767 3.768-3.946 3.768-2.18 0-3.946-1.687-3.946-3.768h-.001c0 2.081-1.767 3.768-3.946 3.768-2.18 0-3.947-1.687-3.947-3.768v-1.763h7.893z"/>
            <path fill="#333" d="M24.175 36.045V28.83c0-7.26 5.793-13.22 13.182-13.852a15.247 15.247 0 0 0-1.302-.056c-7.999 0-14.484 6.227-14.484 13.908v7.215c0 7.681 6.485 13.908 14.484 13.908.44 0 .873-.02 1.302-.056-7.39-.633-13.182-6.592-13.182-13.852z" opacity=".1"/>
            <g transform="translate(16 14)">
                <ellipse cx="12.806" cy="19.998" fill="#26150C" rx="1.848" ry="1.813"/>
                <ellipse cx="26.194" cy="19.998" fill="#26150C" rx="1.848" ry="1.813"/>
                <path fill="#2A170C" d="M27.19 39.05h-2.806V38h1.623c4.801 0 8.708-3.832 8.708-8.543v-2.273c2.396-.59 4.176-2.72 4.176-5.25 0-2.492-1.776-4.651-4.176-5.247v-1.76C34.715 6.695 27.89 0 19.5 0S4.284 6.696 4.284 14.926v1.761c-2.4.596-4.176 2.754-4.176 5.247 0 2.53 1.78 4.66 4.176 5.25v2.273c0 4.71 3.907 8.543 8.709 8.543h1.622v1.05h-2.804C5.358 39.05.108 44.2.108 50.53v7.549c0 .509.42.92.94.92h36.905a.93.93 0 0 0 .939-.92v-7.55c0-6.33-5.25-11.479-11.702-11.48zm7.526-16.858v-3.574c1.346.53 2.298 1.834 2.298 3.316 0 1.504-.954 2.791-2.298 3.316v-3.058zm-8.465 18.7v.844c0 1.571-1.304 2.85-2.906 2.85s-2.905-1.279-2.905-2.85v-.845h5.811zM19.5 39.048h-3.007v-2.223c0 .06 1.225.19 1.338.202a15.648 15.648 0 0 0 4.676-.202v2.223H19.5zm13.338-9.592c0 3.695-3.065 6.701-6.831 6.701h-1.131l.16-.063.11-.043c1.651-.65 3.18-1.587 4.507-2.75a14.972 14.972 0 0 0 3.185-3.917v.072zM6.162 14.927c0-7.216 5.983-13.085 13.338-13.085 7.355 0 13.338 5.87 13.338 13.084v1.394c-4.78-1.037-9.875-3.632-12.183-8.07a6.926 6.926 0 0 1-.054-.107c-.148-.295-.213-.468-.214-.472a.938.938 0 0 0-.887-.618.937.937 0 0 0-.87.58l-.015.034c-.005.013-.34.913-1.262 2.142l-.007.009-.084.11-.062.08-.03.037c-.792 1.005-1.969 2.199-3.664 3.313l-.03.02a17.734 17.734 0 0 1-.436.275l-.083.052c-2.281 1.377-4.727 2.164-6.795 2.614v-1.393zm-1.878 7.265v3.058c-1.344-.525-2.298-1.813-2.298-3.316 0-1.482.952-2.786 2.298-3.316v3.574zm1.878 7.265v-.072a15.048 15.048 0 0 0 5.147 5.38c.804.507 1.657.938 2.544 1.287l.111.044.16.062h-1.131c-3.767 0-6.83-3.006-6.83-6.7zm8.366 4.85C9.906 32.45 6.583 28.058 6.2 23.161c-.129-1.64-.038-3.314-.038-4.958 0-.057 2.701-.668 2.957-.75a21.911 21.911 0 0 0 3.086-1.248c2.691-1.334 5.174-3.194 6.903-5.638.145-.204.275-.4.392-.584a15.23 15.23 0 0 0 2.294 2.793l.069.065c1.55 1.48 3.429 2.667 5.382 3.578 1.78.83 3.667 1.395 5.592 1.784 0 2.987.21 6.007-.95 8.839-.916 2.233-2.483 4.187-4.449 5.623-2.152 1.57-4.772 2.507-7.456 2.602a13.364 13.364 0 0 1-5.454-.962zM12.75 40.89h5.811v.845c0 1.571-1.303 2.85-2.905 2.85-1.602 0-2.906-1.279-2.906-2.85v-.845zm24.264 16.267H1.986V50.53c0-5.004 3.908-9.128 8.886-9.593v.799c0 2.587 2.146 4.692 4.784 4.692a4.81 4.81 0 0 0 3.844-1.905 4.81 4.81 0 0 0 3.845 1.905c2.638 0 4.783-2.105 4.783-4.692v-.8c4.979.466 8.886 4.59 8.886 9.594v6.628z"/>
                <path fill="#26150C" d="M24.808 27.813a.91.91 0 0 0 .216-1.285.95.95 0 0 0-1.31-.212c-.88.619-2.495 1.004-4.214 1.004-1.718 0-3.333-.385-4.214-1.005a.95.95 0 0 0-1.31.213.91.91 0 0 0 .216 1.285c1.2.844 3.185 1.349 5.308 1.349 2.122 0 4.107-.504 5.308-1.349z"/>
            </g>
        </g>
    </g>
</svg>
